<?xml version="1.0" encoding="utf-8"?>
<!-- Svg Vector Icons : http://www.onlinewebfonts.com/icon -->
<!DOCTYPE svg PUBLIC "-//W3C//DTD SVG 1.1//EN" "http://www.w3.org/Graphics/SVG/1.1/DTD/svg11.dtd">
<svg version="1.1" xmlns="http://www.w3.org/2000/svg" xmlns:xlink="http://www.w3.org/1999/xlink" x="0px" y="0px" viewBox="0 0 1000 1000" enable-background="new 0 0 1000 1000" xml:space="preserve">
<metadata> Svg Vector Icons : http://www.onlinewebfonts.com/icon </metadata>
<g><path d="M957.6,630.7H610.7l75.4-75.4c12.7-12.7,12.7-33.2,0-45.8c-12.7-12.7-33.2-12.7-45.8,0L509.5,640.2c-0.4,0.4-0.8,0.8-1.1,1.2c-0.1,0.1-0.3,0.3-0.4,0.4c-0.2,0.3-0.4,0.5-0.6,0.7c-0.2,0.2-0.4,0.5-0.5,0.7c-0.1,0.2-0.3,0.4-0.4,0.6c-0.2,0.3-0.4,0.5-0.6,0.8c-0.1,0.2-0.2,0.3-0.3,0.5c-0.2,0.3-0.4,0.6-0.5,0.8c-0.1,0.2-0.2,0.3-0.3,0.5c-0.2,0.3-0.3,0.6-0.5,0.8c-0.1,0.2-0.2,0.4-0.3,0.5c-0.1,0.3-0.3,0.5-0.4,0.8c-0.1,0.2-0.2,0.4-0.3,0.6c-0.1,0.3-0.2,0.5-0.3,0.8c-0.1,0.2-0.2,0.5-0.3,0.7c-0.1,0.2-0.2,0.4-0.3,0.7c-0.1,0.3-0.2,0.6-0.3,0.8c-0.1,0.2-0.1,0.4-0.2,0.6c-0.1,0.3-0.2,0.6-0.3,0.9c0,0.2-0.1,0.3-0.1,0.5c-0.1,0.3-0.2,0.7-0.3,1c0,0.2-0.1,0.3-0.1,0.5c-0.1,0.4-0.2,0.7-0.2,1.1c0,0.2-0.1,0.3-0.1,0.5c-0.1,0.4-0.1,0.7-0.2,1.1c0,0.2,0,0.4-0.1,0.6c0,0.3-0.1,0.7-0.1,1c0,0.3,0,0.5-0.1,0.8c0,0.3,0,0.5-0.1,0.8c0,0.5,0,0.9,0,1.4c0,0.1,0,0.1,0,0.2c0,0.1,0,0.1,0,0.2c0,0.5,0,0.9,0,1.4c0,0.3,0,0.5,0.1,0.8c0,0.3,0,0.5,0.1,0.8c0,0.3,0.1,0.7,0.1,1c0,0.2,0,0.4,0.1,0.6c0.1,0.4,0.1,0.7,0.2,1.1c0,0.2,0.1,0.3,0.1,0.5c0.1,0.4,0.1,0.7,0.2,1.1c0,0.2,0.1,0.3,0.1,0.5c0.1,0.3,0.2,0.7,0.3,1c0,0.2,0.1,0.3,0.1,0.5c0.1,0.3,0.2,0.6,0.3,0.9c0.1,0.2,0.1,0.4,0.2,0.6c0.1,0.3,0.2,0.6,0.3,0.8c0.1,0.2,0.2,0.5,0.3,0.7c0.1,0.2,0.2,0.5,0.3,0.7c0.1,0.3,0.2,0.5,0.3,0.7c0.1,0.2,0.2,0.4,0.3,0.6c0.1,0.3,0.3,0.5,0.4,0.8c0.1,0.2,0.2,0.4,0.3,0.5c0.2,0.3,0.3,0.6,0.5,0.8c0.1,0.2,0.2,0.3,0.3,0.5c0.2,0.3,0.4,0.6,0.5,0.8c0.1,0.2,0.2,0.3,0.3,0.5c0.2,0.3,0.4,0.5,0.6,0.8c0.1,0.2,0.3,0.4,0.4,0.6c0.2,0.2,0.3,0.5,0.5,0.7c0.2,0.3,0.4,0.5,0.6,0.8c0.1,0.1,0.3,0.3,0.4,0.4c0.4,0.4,0.7,0.8,1.1,1.2l130.7,130.7c6.3,6.3,14.6,9.5,22.9,9.5c8.3,0,16.6-3.2,22.9-9.5c12.7-12.7,12.7-33.2,0-45.8l-75.4-75.4h346.9c17.9,0,32.4-14.5,32.4-32.4C990,645.3,975.5,630.7,957.6,630.7L957.6,630.7z M630.7,205.1c0-17.9-14.5-32.4-32.4-32.4H173.2c-17.9,0-32.4,14.5-32.4,32.4c0,17.9,14.5,32.4,32.4,32.4h425.2C616.2,237.5,630.7,223,630.7,205.1L630.7,205.1z M467,400.1c0-17.9-14.5-32.4-32.4-32.4H173.2c-17.9,0-32.4,14.5-32.4,32.4c0,17.9,14.5,32.4,32.4,32.4h261.5C452.5,432.5,467,418,467,400.1L467,400.1z M173.2,563.8c-17.9,0-32.4,14.5-32.4,32.4c0,17.9,14.5,32.4,32.4,32.4h196.1c17.9,0,32.4-14.5,32.4-32.4c0-17.9-14.5-32.4-32.4-32.4H173.2L173.2,563.8z M957.6,794.4c-17.9,0-32.4,14.5-32.4,32.4v77.4c0,11.5-9.4,20.9-20.9,20.9H303.4v-33c0-17.9-14.5-32.4-32.4-32.4c-17.9,0-32.4,14.5-32.4,32.4v65.4c0,16.4,12.2,30,28.1,32.1c0.5,0.1,1.1,0.2,1.7,0.3c0.9,0,1.7,0,2.6,0h633.3c42.5,0,77.9-31.1,84.6-71.8c0.7-2.7,1.1-5.6,1.1-8.6v-82.8C990,808.9,975.5,794.4,957.6,794.4L957.6,794.4z M904.2,140.7h-51.1c-17.9,0-32.4,14.5-32.4,32.4c0,17.9,14.5,32.4,32.4,32.4h51.1c11.5,0,20.9,9.4,20.9,20.9v270.4c0,17.9,14.5,32.4,32.4,32.4c17.9,0,32.4-14.5,32.4-32.4V226.5C990,179.2,951.5,140.7,904.2,140.7L904.2,140.7z M467.3,825.8c18,0,32.7-14.6,32.7-32.7c0-17.8-14.2-32.2-31.9-32.7v0H95.8c-11.5,0-20.9-9.4-20.9-20.9V95.8c0-11.5,9.4-20.9,20.9-20.9h579.9c11.5,0,20.9,9.4,20.9,20.9v306.4c0,17.9,14.5,32.4,32.4,32.4c17.9,0,32.4-14.5,32.4-32.4V95.8c0-47.3-38.5-85.8-85.8-85.8H95.8C48.5,10,10,48.5,10,95.8v643.7c0,47.3,38.5,85.8,85.8,85.8h365.7C463.4,825.6,465.3,825.8,467.3,825.8L467.3,825.8z"/></g>
</svg>